<svg id="visual" viewBox="0 0 1480 150" width="1480" height="150" xmlns="http://www.w3.org/2000/svg" xmlns:xlink="http://www.w3.org/1999/xlink" version="1.1"><rect x="0" y="0" width="1480" height="150" fill="#121212"></rect><path d="M0 58L211 58L211 42L423 42L423 28L634 28L634 49L846 49L846 34L1057 34L1057 24L1269 24L1269 37L1480 37L1480 72L1480 151L1480 151L1269 151L1269 151L1057 151L1057 151L846 151L846 151L634 151L634 151L423 151L423 151L211 151L211 151L0 151Z" fill="#000058"></path><path d="M0 70L211 70L211 89L423 89L423 78L634 78L634 69L846 69L846 95L1057 95L1057 82L1269 82L1269 67L1480 67L1480 73L1480 151L1480 151L1269 151L1269 151L1057 151L1057 151L846 151L846 151L634 151L634 151L423 151L423 151L211 151L211 151L0 151Z" fill="#1e2686"></path><path d="M0 98L211 98L211 129L423 129L423 127L634 127L634 96L846 96L846 129L1057 129L1057 121L1269 121L1269 107L1480 107L1480 115L1480 151L1480 151L1269 151L1269 151L1057 151L1057 151L846 151L846 151L634 151L634 151L423 151L423 151L211 151L211 151L0 151Z" fill="#344cb7"></path></svg>